<svg xmlns="http://www.w3.org/2000/svg" xmlns:xlink="http://www.w3.org/1999/xlink" version="1.1" x="0px" y="0px" viewBox="0 0 96 120" style="enable-background:new 0 0 96 96;" xml:space="preserve"><style type="text/css">
	.st0{fill-rule:evenodd;clip-rule:evenodd;}
</style><path d="M91.744,61.677c1.135-2.246,0.665-4.912-1.17-6.634l-2.277-2.137c-0.414-0.388-0.645-0.79-0.775-1.342l-0.712-3.04  c-0.574-2.45-2.648-4.19-5.161-4.33l-3.118-0.173c-0.566-0.032-1.002-0.19-1.456-0.53l-2.5-1.871c-2.015-1.508-4.722-1.508-6.737,0  l-2.5,1.871c-0.454,0.34-0.89,0.499-1.456,0.53l-3.118,0.173c-2.317,0.129-4.258,1.621-4.997,3.773  c-3.506-2.66-7.496-4.57-11.727-5.635c4.538-2.37,7.908-6.709,8.924-11.96h0.086c2.066,0,3.747-1.681,3.747-3.747  c0-1.697-1.134-3.134-2.684-3.593c-0.009-7.505-4.603-14.132-11.535-16.804c-0.12-0.603-0.378-1.16-0.776-1.645  c-1.04-1.269-2.935-2.005-5.632-2.189c-0.067-0.005-0.133-0.005-0.2,0c-2.697,0.184-4.591,0.92-5.632,2.189  c-0.398,0.485-0.655,1.042-0.775,1.645c-6.932,2.672-11.525,9.299-11.535,16.804c-1.55,0.459-2.684,1.896-2.684,3.593  c0,2.066,1.681,3.747,3.747,3.747h0.086c1.016,5.251,4.386,9.589,8.922,11.959c-5.13,1.29-9.902,3.82-13.893,7.429  C8.252,55.146,4.502,62.493,3.651,70.445c-0.044,0.415,0.09,0.83,0.369,1.14s0.677,0.488,1.094,0.488h47.314  c0.561,1.249,1.576,2.279,2.916,2.853l1.045,0.448l-5.356,11.504c-0.29,0.624-0.211,1.35,0.208,1.897  c0.418,0.546,1.099,0.811,1.778,0.693l4.59-0.802l2.342,4.03c0.332,0.57,0.935,0.915,1.588,0.915c0.028,0,0.057-0.001,0.085-0.002  c0.688-0.031,1.296-0.438,1.587-1.062l4.984-10.705l2.235-0.675c0.543-0.165,1.006-0.164,1.55,0l2.235,0.675l4.984,10.705  c0.291,0.624,0.899,1.031,1.585,1.062c0.029,0.001,0.057,0.002,0.086,0.002c0.655,0,1.258-0.345,1.59-0.916l2.341-4.029l4.591,0.802  c0.678,0.119,1.359-0.148,1.777-0.694c0.418-0.546,0.498-1.273,0.208-1.897l-5.356-11.504l1.045-0.448  c2.313-0.991,3.667-3.335,3.368-5.834l-0.371-3.101c-0.067-0.563,0.013-1.02,0.269-1.526L91.744,61.677z M29.75,9.338l0.905,6.969  c0.105,0.806,0.843,1.373,1.648,1.27c0.806-0.105,1.374-0.843,1.27-1.649L32.44,7.205c-0.054-0.413,0.058-0.615,0.175-0.757  c0.468-0.57,1.756-0.984,3.456-1.112c1.701,0.128,2.989,0.542,3.456,1.112c0.117,0.142,0.229,0.344,0.175,0.757l-1.133,8.723  c-0.105,0.806,0.464,1.544,1.27,1.649c0.064,0.008,0.128,0.012,0.191,0.012c0.728,0,1.361-0.541,1.457-1.282l0.905-6.969  c5.263,2.415,8.706,7.644,8.774,13.539h-5.032v-7.939c0-0.813-0.659-1.471-1.471-1.471s-1.471,0.659-1.471,1.471v7.939H28.951  v-7.939c0-0.813-0.659-1.471-1.471-1.471s-1.471,0.659-1.471,1.471v7.939h-5.032C21.044,16.982,24.487,11.753,29.75,9.338z   M53.051,25.82c0.436,0,0.804,0.368,0.804,0.804c0,0.436-0.368,0.804-0.804,0.804H19.093c-0.436,0-0.804-0.368-0.804-0.804  c0-0.436,0.368-0.804,0.804-0.804 M22.187,30.371h27.769c-1.498,6.357-7.195,10.97-13.879,10.972c-0.002,0-0.004,0-0.005,0  c-0.002,0-0.003,0-0.005,0C29.382,41.341,23.685,36.728,22.187,30.371z M36.066,44.286c0.002,0,0.004,0,0.005,0  c0.002,0,0.003,0,0.005,0c6.925,0.001,13.608,2.42,18.92,6.825l-0.106,0.453c-0.129,0.552-0.361,0.954-0.775,1.342l-2.277,2.137  c-1.835,1.722-2.305,4.388-1.17,6.634l1.409,2.787c0.256,0.506,0.336,0.963,0.269,1.526l-0.371,3.101  c-0.002,0.013-0.002,0.026-0.003,0.038H6.796C9.116,54.858,21.421,44.289,36.066,44.286z M61.436,89.391L59.64,86.3  c-0.31-0.533-0.918-0.816-1.525-0.71l-3.521,0.615l4.433-9.521c0.136,0.134,0.26,0.288,0.377,0.467l1.709,2.614  c0.867,1.325,2.196,2.183,3.662,2.456L61.436,89.391z M84.299,85.59c-0.607-0.106-1.216,0.177-1.525,0.71l-1.796,3.091l-3.339-7.171  c1.466-0.273,2.795-1.129,3.662-2.455l1.709-2.614c0.117-0.179,0.241-0.333,0.377-0.467l4.433,9.521L84.299,85.59z M89.118,60.35  l-1.409,2.787c-0.516,1.02-0.7,2.068-0.565,3.203l0.371,3.101c0.144,1.209-0.485,2.301-1.605,2.78l-2.871,1.229  c-1.051,0.45-1.866,1.134-2.491,2.091l-1.709,2.614c-0.667,1.019-1.851,1.45-3.017,1.098l-2.989-0.903  c-1.094-0.331-2.158-0.33-3.252,0l-2.989,0.903c-1.165,0.353-2.35-0.078-3.016-1.098l-1.709-2.613  c-0.626-0.957-1.441-1.64-2.491-2.091l-2.871-1.229c-1.12-0.48-1.75-1.571-1.605-2.78l0.371-3.101  c0.136-1.135-0.049-2.183-0.565-3.203l-1.409-2.787c-0.549-1.087-0.331-2.328,0.557-3.161l2.277-2.137  c0.833-0.782,1.365-1.704,1.626-2.817l0.712-3.041c0.278-1.186,1.243-1.996,2.459-2.063l3.118-0.173  c1.141-0.063,2.141-0.427,3.056-1.112l2.5-1.871c0.488-0.365,1.046-0.547,1.605-0.547c0.559,0,1.117,0.183,1.605,0.547l2.5,1.872  c0.915,0.685,1.915,1.049,3.056,1.112l3.118,0.173c1.216,0.068,2.181,0.878,2.459,2.063l0.712,3.04  c0.261,1.113,0.793,2.034,1.626,2.817l2.277,2.137C89.448,58.022,89.667,59.263,89.118,60.35z M84.644,58.28L83.2,57.724  c-0.233-0.762-0.539-1.5-0.914-2.205l0.628-1.414c0.247-0.556,0.126-1.207-0.304-1.638l-2.471-2.471  c-0.43-0.43-1.081-0.551-1.637-0.304l-1.415,0.629c-0.705-0.375-1.442-0.681-2.204-0.914l-0.556-1.444  c-0.219-0.568-0.764-0.943-1.373-0.943H69.46c-0.609,0-1.154,0.375-1.373,0.943l-0.556,1.444c-0.762,0.233-1.499,0.539-2.204,0.914  l-1.416-0.629c-0.556-0.247-1.207-0.126-1.637,0.304l-2.471,2.471c-0.43,0.431-0.551,1.081-0.304,1.638l0.629,1.415  c-0.375,0.705-0.681,1.442-0.914,2.204l-1.444,0.556c-0.568,0.219-0.943,0.764-0.943,1.373v3.494c0,0.609,0.375,1.154,0.943,1.373  l1.444,0.556c0.233,0.763,0.539,1.5,0.914,2.205l-0.628,1.415c-0.247,0.556-0.126,1.207,0.304,1.638l2.471,2.471  c0.43,0.431,1.081,0.551,1.638,0.304l1.415-0.629c0.705,0.375,1.442,0.681,2.204,0.914l0.556,1.444  c0.219,0.568,0.764,0.943,1.373,0.943h3.494c0.609,0,1.154-0.375,1.373-0.943l0.556-1.444c0.763-0.233,1.5-0.539,2.205-0.914  l1.415,0.628c0.556,0.247,1.207,0.126,1.638-0.304l2.471-2.471c0.43-0.43,0.551-1.081,0.304-1.637l-0.629-1.415  c0.375-0.705,0.681-1.442,0.914-2.204l1.444-0.556c0.568-0.219,0.943-0.764,0.943-1.373v-3.494  C85.587,59.044,85.212,58.499,84.644,58.28z M82.644,62.137l-1.196,0.46c-0.453,0.174-0.791,0.561-0.903,1.033  c-0.235,0.987-0.625,1.927-1.159,2.795c-0.254,0.413-0.289,0.925-0.092,1.369l0.521,1.173l-1.042,1.042l-1.172-0.521  c-0.444-0.197-0.956-0.163-1.369,0.092c-0.867,0.534-1.808,0.924-2.796,1.159c-0.472,0.112-0.858,0.45-1.033,0.903l-0.46,1.196  H70.47l-0.461-1.197c-0.174-0.453-0.561-0.79-1.033-0.903c-0.987-0.235-1.928-0.625-2.795-1.159  c-0.413-0.254-0.925-0.288-1.369-0.092l-1.173,0.521l-1.042-1.042l0.521-1.172c0.197-0.444,0.163-0.956-0.092-1.369  c-0.534-0.867-0.924-1.808-1.159-2.796c-0.112-0.472-0.45-0.858-0.903-1.032l-1.196-0.46v-1.474l1.196-0.46  c0.453-0.174,0.79-0.561,0.903-1.032c0.235-0.988,0.625-1.928,1.159-2.795c0.254-0.413,0.289-0.925,0.092-1.369l-0.521-1.173  l1.042-1.042l1.173,0.521c0.443,0.197,0.955,0.163,1.368-0.092c0.867-0.534,1.808-0.924,2.795-1.159  c0.472-0.112,0.858-0.45,1.032-0.903l0.461-1.197h1.474l0.461,1.197c0.174,0.453,0.561,0.79,1.032,0.903  c0.987,0.235,1.928,0.625,2.795,1.159c0.413,0.254,0.925,0.289,1.369,0.092l1.173-0.521l1.042,1.042l-0.521,1.172  c-0.197,0.444-0.163,0.956,0.092,1.369c0.534,0.867,0.924,1.808,1.159,2.796c0.112,0.472,0.45,0.858,0.903,1.033l1.196,0.46V62.137z   M71.207,53.835c-4.171,0-7.565,3.394-7.565,7.565c0,4.171,3.393,7.565,7.565,7.565c4.171,0,7.565-3.394,7.565-7.565  C78.771,57.229,75.378,53.835,71.207,53.835z M71.207,66.022c-2.549,0-4.622-2.074-4.622-4.622c0-2.549,2.073-4.622,4.622-4.622  c2.549,0,4.622,2.074,4.622,4.622C75.829,63.949,73.755,66.022,71.207,66.022z"/><text x="0" y="111" fill="#000000" font-size="5px" font-weight="bold" font-family="'Helvetica Neue', Helvetica, Arial-Unicode, Arial, Sans-serif">Created by Eko Purnomo</text><text x="0" y="116" fill="#000000" font-size="5px" font-weight="bold" font-family="'Helvetica Neue', Helvetica, Arial-Unicode, Arial, Sans-serif">from the Noun Project</text></svg>